<?xml version="1.0" standalone="no"?>
<!DOCTYPE svg PUBLIC "-//W3C//DTD SVG 20010904//EN"
 "http://www.w3.org/TR/2001/REC-SVG-20010904/DTD/svg10.dtd">
<svg version="1.0" xmlns="http://www.w3.org/2000/svg"
 width="700.000000pt" height="700.000000pt" viewBox="0 0 700.000000 700.000000"
 preserveAspectRatio="xMidYMid meet">
<metadata>
Created by potrace 1.14, written by Peter Selinger 2001-2017
</metadata>
<g transform="translate(0.000000,700.000000) scale(0.100000,-0.100000)"
fill="#000000" stroke="none">
<path d="M3407 6102 c4 -816 8 -1117 17 -1127 12 -14 189 -11 194 4 2 6 9 8
14 5 6 -4 8 -2 4 4 -3 6 -8 72 -10 147 -2 75 -6 139 -10 142 -3 3 -1 14 5 24
7 13 6 19 -1 19 -6 0 -8 5 -4 12 4 6 6 39 5 72 -2 34 -3 294 -4 578 l-1 518
-23 -5 c-38 -6 -169 -8 -179 -2 -5 3 -8 -160 -7 -391z"/>
<path d="M3177 6484 c-8 -8 -88 -22 -165 -28 -13 -1 -26 -7 -30 -14 -10 -14
-8 -904 1 -919 4 -7 3 -14 -3 -18 -7 -4 -7 -12 0 -25 7 -13 7 -21 0 -25 -6 -4
-7 -12 -3 -18 13 -20 12 -357 -1 -364 -6 -4 -29 -9 -51 -10 -22 -1 -67 -5
-100 -7 l-61 -5 2 207 c0 124 -3 210 -9 213 -8 6 -51 -27 -45 -33 5 -5 -114
-118 -123 -118 -5 0 -9 -7 -9 -15 0 -8 -4 -15 -8 -15 -5 0 -45 -35 -89 -77
-141 -136 -264 -248 -288 -262 -21 -13 -23 -21 -22 -86 0 -39 -3 -77 -7 -83
-4 -7 -3 -12 2 -12 10 0 9 -30 -1 -47 -4 -6 -1 -14 5 -17 9 -4 9 -8 2 -11 -7
-4 -9 -22 -5 -48 5 -36 6 -349 2 -582 l-1 -71 -430 1 c-280 0 -430 -3 -430
-10 0 -7 -3 -7 -8 0 -4 6 -20 10 -37 10 -16 0 -33 -4 -37 -10 -5 -7 -8 -7 -8
0 0 6 -39 9 -102 8 -137 -3 -452 -11 -458 -12 -3 -1 -5 -20 -5 -44 0 -23 -2
-46 -4 -51 -7 -16 0 -151 9 -156 4 -3 118 -5 252 -4 161 0 248 -3 257 -10 9
-6 12 -7 9 -1 -4 7 38 10 123 10 81 0 129 -3 129 -10 0 -7 3 -7 8 0 9 13 72
15 72 2 0 -5 8 -3 17 4 15 12 16 12 8 -1 -7 -12 -6 -13 6 -4 15 12 127 13 146
1 6 -4 14 -3 18 2 5 10 36 7 55 -4 6 -3 10 -2 10 2 0 11 90 10 108 0 6 -5 12
-5 12 0 0 4 16 8 35 8 19 0 35 -2 35 -5 0 -3 16 -5 35 -5 19 0 35 2 35 5 0 3
32 5 72 5 l72 0 1 -277 c1 -180 -3 -281 -9 -290 -14 -17 -181 -23 -192 -7 -5
9 -6 82 -2 294 0 22 0 45 -1 50 -1 12 -189 14 -208 2 -7 -5 -13 -4 -13 2 0 10
-25 9 -36 -2 -4 -3 -14 -2 -24 3 -10 5 -20 7 -23 3 -9 -8 -81 -8 -94 0 -7 4
-15 3 -18 -3 -5 -8 -11 -8 -20 0 -10 8 -15 8 -20 0 -4 -6 -12 -7 -18 -3 -11 8
-607 9 -689 1 -21 -2 -38 -1 -38 3 0 8 -45 3 -59 -6 -6 -3 -11 -2 -11 3 0 7
-12 8 -51 3 -7 -1 -5 -28 6 -141 14 -132 18 -161 26 -175 4 -5 5 -20 4 -32 -1
-13 1 -23 5 -23 3 0 6 -12 7 -27 1 -16 5 -41 8 -58 4 -16 7 -38 8 -47 1 -10 4
-18 7 -18 5 0 7 -9 11 -65 1 -14 6 -25 11 -25 6 0 8 -11 6 -25 -3 -14 -1 -28
4 -31 4 -3 6 -10 3 -15 -4 -5 -1 -9 6 -9 6 0 9 -8 6 -20 -3 -11 0 -20 6 -20 6
0 8 -3 4 -6 -3 -4 0 -19 9 -35 8 -16 12 -29 9 -29 -3 0 1 -13 10 -30 8 -16 15
-32 15 -35 0 -3 0 -6 1 -7 0 -2 3 -14 5 -28 3 -14 9 -26 14 -28 6 -2 10 -12
10 -21 0 -10 3 -21 7 -25 4 -3 8 -13 9 -21 4 -25 28 -75 37 -75 5 0 6 -4 2 -9
-3 -5 0 -15 7 -23 7 -7 14 -20 16 -28 2 -8 9 -18 15 -22 7 -4 8 -8 3 -8 -5 0
-2 -8 6 -17 9 -10 19 -29 23 -43 4 -14 13 -32 19 -40 7 -8 30 -44 51 -80 21
-36 42 -66 47 -68 4 -2 8 -12 8 -22 0 -10 7 -20 15 -24 8 -3 15 -12 15 -21 0
-8 4 -15 8 -15 4 0 15 -12 25 -27 9 -16 30 -44 47 -63 17 -19 49 -57 73 -84
23 -27 47 -54 54 -61 7 -7 9 -15 6 -19 -4 -3 -2 -6 4 -6 11 0 83 -67 83 -79 1
-3 19 -19 40 -36 21 -16 39 -35 40 -42 0 -6 4 -13 9 -15 7 -3 113 -95 172
-150 11 -10 21 -18 24 -18 6 0 40 -28 68 -55 11 -12 17 -14 13 -5 -4 8 2 4 13
-9 12 -13 21 -20 21 -17 0 4 10 -2 22 -14 12 -11 25 -20 28 -20 4 0 17 -9 30
-20 12 -11 27 -17 31 -14 5 3 9 1 9 -5 0 -6 16 -18 36 -27 20 -9 38 -23 41
-31 3 -7 9 -11 13 -8 4 3 24 -6 43 -19 19 -13 38 -22 41 -18 3 3 6 1 6 -5 0
-10 36 -26 53 -24 4 1 7 -3 7 -7 0 -5 33 -22 73 -37 39 -16 82 -35 95 -43 12
-8 25 -12 29 -9 3 3 12 -1 20 -9 8 -8 19 -12 24 -9 5 4 9 1 9 -4 0 -6 3 -10 8
-9 4 1 20 -4 35 -10 16 -7 34 -12 42 -12 8 0 17 -4 20 -10 3 -5 19 -10 36 -10
16 0 29 -5 29 -11 0 -6 6 -9 14 -6 7 3 19 0 25 -6 6 -6 11 -8 11 -4 0 4 8 3
19 -2 10 -6 32 -13 50 -16 33 -6 34 -4 32 50 -1 17 -1 39 0 50 0 11 0 29 0 40
0 11 -1 34 0 50 4 206 3 315 -4 315 -5 0 -5 4 -2 10 3 5 6 33 6 62 -1 84 -1
87 0 101 0 6 -1 29 -3 50 -3 20 -1 37 3 37 4 0 4 15 0 33 -4 17 -4 44 0 59 4
16 3 28 -2 28 -5 0 -5 10 1 24 5 13 6 26 3 30 -7 7 -7 111 0 123 3 5 2 15 -3
22 -4 8 -4 27 0 42 5 16 5 31 1 33 -7 5 -6 83 2 128 3 15 2 30 -3 33 -7 4 -7
25 0 45 2 6 2 94 0 130 -4 54 15 675 20 675 1 0 3 14 6 30 2 17 4 35 5 40 3
19 -6 40 -25 58 -10 9 -16 17 -12 17 4 0 0 7 -8 16 -26 25 -76 102 -76 115 0
7 -3 9 -7 6 -7 -7 -75 119 -76 141 0 6 -4 12 -9 12 -4 0 -8 7 -8 15 0 8 -4 23
-9 33 -26 52 -33 71 -27 81 4 6 2 11 -4 11 -7 0 -10 6 -7 14 3 8 3 17 -1 20
-8 9 -15 52 -16 104 0 23 -3 42 -6 42 -7 0 -4 86 4 105 3 8 1 15 -4 15 -5 0
-7 15 -5 33 3 17 7 57 9 87 6 66 9 81 19 98 5 7 3 12 -5 12 -8 0 -9 3 -3 8 10
7 33 65 40 101 2 10 11 33 19 50 9 17 14 31 10 31 -7 0 36 73 49 81 5 3 8 8 7
10 -3 9 20 59 28 59 4 0 16 14 27 32 21 36 183 198 198 198 5 0 19 10 31 23
11 12 26 24 31 25 6 1 17 8 25 15 8 7 30 19 48 26 17 7 32 17 32 22 0 5 3 8 8
7 4 -1 24 6 45 15 21 9 45 18 55 19 39 7 41 20 39 212 -1 116 -6 186 -12 186
-7 0 -7 3 0 8 13 9 15 42 3 42 -6 0 -6 6 1 14 8 10 9 16 1 21 -7 4 -7 12 0 26
8 14 7 19 -1 19 -9 0 -9 3 0 14 8 10 9 16 1 21 -6 4 -7 12 -1 24 6 10 6 23 1
31 -5 8 -5 21 1 31 6 11 5 20 -1 24 -6 3 -6 15 0 30 6 15 6 27 0 30 -6 4 -7
13 -1 24 6 10 6 23 1 31 -5 8 -5 21 0 30 5 9 5 22 0 30 -5 9 -5 19 2 27 6 8 6
13 1 13 -13 0 -11 63 2 72 7 5 7 8 0 8 -11 0 -13 105 -2 116 3 4 3 14 -2 23
-9 19 -7 123 3 139 3 6 3 13 -2 15 -8 6 -7 75 2 84 3 4 1 12 -5 20 -6 7 -8 13
-3 13 15 0 13 198 -2 204 -6 2 -14 3 -17 0z m-1742 -3229 c44 -8 135 -58 135
-74 0 -8 3 -11 6 -8 8 7 44 -36 44 -52 0 -6 5 -11 11 -11 5 0 8 -4 5 -9 -4 -5
-2 -11 4 -13 6 -2 12 -13 15 -26 2 -12 7 -26 10 -32 3 -5 6 -36 7 -67 0 -61
-33 -154 -69 -191 -10 -10 -19 -27 -21 -37 -7 -56 -13 -269 -7 -263 7 7 35
-14 35 -26 0 -6 90 -94 122 -119 43 -34 111 -92 133 -114 12 -13 25 -23 28
-23 8 0 43 -31 135 -117 37 -35 71 -63 75 -63 5 0 5 -5 2 -10 -3 -5 -1 -10 5
-10 6 0 60 -50 120 -110 61 -61 115 -110 121 -110 6 0 7 -4 4 -10 -3 -5 1 -10
10 -10 11 0 15 -5 11 -15 -3 -8 -2 -15 3 -15 5 0 34 -25 66 -55 31 -30 53 -55
49 -55 -4 0 3 -9 16 -20 13 -11 26 -20 29 -20 3 0 11 -10 16 -23 18 -38 8
-237 -12 -237 -5 0 -69 50 -116 90 -17 14 -117 112 -224 217 -106 106 -198
193 -203 193 -5 0 -12 9 -15 20 -3 11 -10 20 -15 20 -4 0 -36 27 -71 60 -34
33 -67 60 -71 60 -5 0 -7 4 -3 9 3 5 -4 12 -15 16 -11 3 -20 13 -20 21 0 8 -4
13 -9 9 -5 -3 -16 4 -24 15 -7 11 -17 17 -20 13 -4 -3 -7 1 -7 10 0 10 -4 17
-8 17 -5 0 -20 9 -33 21 -13 12 -41 35 -63 52 -21 18 -49 42 -62 55 -13 12
-26 22 -29 22 -3 0 -23 17 -44 38 -21 20 -60 56 -85 79 -39 36 -45 46 -38 65
5 13 7 59 4 103 -2 44 -4 95 -5 112 -1 29 -5 34 -37 39 -48 9 -160 65 -160 80
0 7 -9 16 -20 19 -11 4 -18 10 -15 15 2 4 -5 20 -16 34 -12 15 -19 30 -15 33
3 3 2 11 -3 17 -15 19 -30 86 -20 86 6 0 7 6 2 13 -12 20 -12 34 1 85 20 73
58 132 87 132 5 0 7 4 4 10 -5 8 46 36 124 67 24 9 79 8 136 -2z m765 -339
c14 -3 26 -10 28 -16 2 -5 10 -10 18 -10 19 0 76 -57 90 -90 6 -14 10 -37 10
-52 -1 -16 3 -28 9 -28 5 0 5 -4 -2 -8 -6 -4 -14 -19 -16 -33 -3 -15 -11 -37
-19 -50 -17 -31 -81 -89 -90 -83 -5 3 -8 1 -8 -4 0 -9 -11 -12 -60 -15 -16 -1
-30 -5 -30 -9 0 -4 -13 -3 -30 2 -16 5 -30 6 -30 4 0 -3 -6 -2 -12 3 -7 4 -15
8 -18 8 -3 1 -22 12 -43 24 -34 21 -74 75 -69 94 1 4 -3 7 -10 7 -6 0 -8 3 -5
6 3 4 2 15 -4 25 -7 14 -6 19 3 19 9 0 9 3 -2 10 -8 5 -10 10 -4 10 6 0 10 12
8 26 -2 21 10 38 56 83 64 62 90 84 90 77 0 -3 10 -1 23 4 22 9 70 7 117 -4z"/>
<path d="M1325 3078 c-8 -5 -15 -6 -15 -2 0 5 -11 -7 -25 -26 -38 -51 -33
-124 12 -168 16 -17 91 -23 116 -10 30 15 67 50 61 59 -2 4 0 10 6 14 14 8 13
45 -2 77 -23 49 -109 80 -153 56z"/>
<path d="M3825 6418 c1 -35 -3 -69 -8 -75 -6 -8 -6 -13 0 -13 8 0 12 -471 13
-1353 0 -50 3 -60 20 -64 11 -3 20 -10 20 -15 0 -5 5 -6 10 -3 6 3 10 1 10 -5
0 -6 4 -9 9 -6 4 3 38 -15 75 -39 36 -25 69 -45 72 -45 3 0 12 -6 19 -12 31
-28 44 -38 51 -38 3 0 19 -14 35 -31 16 -17 29 -28 29 -25 0 10 141 -138 158
-166 9 -16 20 -28 25 -28 4 0 6 -4 2 -9 -3 -6 0 -13 7 -18 7 -4 22 -26 33 -48
11 -22 26 -48 34 -57 8 -10 11 -18 6 -18 -4 0 -2 -7 5 -15 7 -8 10 -15 6 -15
-4 0 0 -13 9 -30 9 -16 12 -30 8 -30 -4 0 -2 -5 5 -12 7 -7 12 -22 12 -33 0
-12 3 -25 7 -29 9 -8 14 -40 16 -88 1 -21 4 -38 7 -38 3 0 6 -63 6 -140 0 -77
-2 -140 -5 -140 -4 0 -7 -19 -8 -41 -2 -23 -6 -47 -11 -53 -5 -6 -8 -18 -7
-26 1 -8 -3 -23 -8 -33 -9 -19 -19 -61 -20 -84 0 -7 -4 -13 -8 -13 -4 0 -10
-13 -14 -30 -4 -16 -11 -30 -16 -30 -6 0 -8 -4 -5 -9 4 -5 -5 -23 -19 -39 -14
-16 -25 -37 -25 -46 0 -9 -4 -16 -10 -16 -5 0 -10 -7 -10 -15 0 -8 -4 -15 -8
-15 -4 0 -15 -12 -24 -27 -9 -16 -29 -40 -43 -55 -14 -16 -23 -28 -20 -28 4 0
-1 -7 -9 -16 -15 -14 -20 -35 -13 -50 1 -3 -9 -12 -23 -19 -14 -8 -22 -14 -18
-15 4 0 0 -9 -9 -19 -9 -11 -20 -18 -25 -15 -4 3 -8 0 -8 -6 0 -6 -5 -8 -12
-4 -6 4 -8 3 -5 -3 4 -6 -3 -19 -16 -29 -14 -13 -18 -14 -12 -4 8 13 7 13 -5
0 -9 -9 -21 -15 -27 -13 -6 2 -15 -1 -19 -8 -4 -8 -3 -9 4 -5 7 4 12 2 12 -4
0 -6 5 -8 12 -4 7 4 8 3 4 -5 -10 -15 13 -43 28 -34 6 4 6 1 -2 -9 -11 -13 -8
-15 18 -12 16 2 30 -1 30 -6 0 -6 14 -10 30 -10 17 0 30 -5 30 -11 0 -5 -5 -7
-12 -3 -7 4 -8 3 -4 -5 4 -6 11 -9 16 -6 20 12 23 -33 25 -315 1 -163 5 -301
9 -308 4 -7 3 -12 -1 -12 -11 0 -10 -70 0 -86 3 -6 3 -14 -1 -18 -3 -4 -7
-293 -7 -641 -1 -476 2 -636 11 -639 6 -2 21 2 33 10 11 8 21 12 21 8 0 -3 7
-1 15 6 8 7 15 10 15 7 0 -4 18 0 39 8 22 7 42 11 45 8 3 -4 6 -1 6 6 0 7 4
10 8 7 5 -3 20 1 35 9 15 8 27 12 27 9 0 -3 10 1 23 8 12 7 25 13 30 14 4 1 9
3 12 4 3 1 8 3 13 5 21 6 73 28 115 51 26 14 47 23 47 19 0 -3 11 2 25 11 14
9 25 12 25 8 0 -5 4 -4 8 2 4 6 36 26 72 43 91 44 144 75 148 84 2 4 9 7 15 7
7 0 28 14 47 30 33 28 45 34 63 31 4 0 7 6 7 15 0 8 4 13 9 10 4 -3 16 3 26
14 10 11 22 20 27 20 5 0 15 6 22 12 7 7 25 22 40 33 88 64 316 278 316 297 0
5 5 6 10 3 6 -3 10 -1 10 5 0 6 14 24 30 40 17 16 30 35 30 41 0 7 3 10 6 6 4
-3 25 17 47 46 23 29 47 58 54 65 7 7 34 41 60 75 26 34 52 67 59 74 6 6 17
25 24 42 7 17 17 31 22 31 5 0 7 3 4 8 -2 4 9 25 25 47 16 22 32 48 35 58 4 9
9 17 13 17 4 0 7 10 8 22 1 11 6 24 10 27 4 3 15 20 23 36 8 17 24 46 36 65
12 19 21 37 22 40 2 14 17 52 45 110 17 36 31 67 32 70 1 3 7 18 13 33 7 16
12 34 12 42 0 8 4 16 9 19 5 3 11 18 14 33 11 58 18 87 26 102 5 9 9 19 10 24
1 4 1 8 2 10 3 10 11 46 14 62 2 11 4 20 5 20 6 0 33 171 34 218 0 9 4 17 7
17 4 0 6 11 3 25 -2 15 -1 31 3 38 4 7 8 26 8 42 1 17 4 36 9 43 4 7 4 12 0
12 -3 0 -1 6 5 14 9 10 9 16 1 21 -6 4 -8 14 -5 24 4 9 8 33 9 53 2 32 -1 37
-23 41 -14 3 -33 1 -41 -3 -9 -5 -23 -4 -32 1 -11 6 -19 5 -24 -2 -5 -8 -8 -8
-13 0 -5 7 -17 8 -39 2 -20 -6 -32 -6 -32 0 0 6 -6 6 -18 0 -11 -6 -24 -6 -34
0 -11 6 -19 6 -23 -1 -4 -7 -13 -6 -27 1 -11 6 -18 7 -15 2 6 -9 -269 -10
-279 -1 -3 4 -17 3 -30 -2 -17 -7 -24 -6 -24 3 0 7 -3 8 -8 2 -9 -13 -72 -13
-72 0 0 7 -3 7 -8 0 -4 -5 -20 -10 -37 -10 -16 0 -33 5 -37 10 -5 7 -8 7 -8 0
0 -5 -15 -9 -32 -8 -18 1 -33 2 -33 3 0 1 -91 3 -202 4 -112 1 -203 -2 -203
-6 0 -5 -9 -4 -20 2 -23 12 -23 12 -20 -55 1 -27 2 -94 3 -147 1 -54 5 -98 9
-98 4 0 3 -11 -3 -24 -11 -24 -48 -30 -76 -13 -6 4 -14 3 -18 -3 -4 -6 -11 -7
-17 -4 -6 4 -29 8 -50 9 -21 1 -40 4 -43 7 -3 2 -7 44 -9 91 -3 48 -8 91 -11
97 -3 5 -2 10 3 10 5 0 8 10 6 23 -1 12 -3 22 -4 22 -6 0 -4 57 2 61 5 3 5 11
1 17 -9 15 -10 77 -1 103 4 12 4 25 0 28 -3 4 -6 26 -7 50 0 42 1 44 27 42 16
-1 28 2 28 7 0 4 5 5 11 2 14 -9 113 -10 127 -1 6 3 22 2 36 -4 14 -5 26 -6
26 -2 0 4 16 7 35 7 19 0 35 -2 35 -5 0 -3 21 -4 47 -2 42 3 100 3 153 2 8 -1
36 1 63 2 26 2 47 -1 47 -5 0 -5 5 -5 11 -1 17 10 99 11 99 1 0 -5 6 -4 13 2
8 6 17 8 20 5 3 -3 27 -6 54 -5 214 6 476 5 479 -1 3 -5 13 -4 23 1 9 5 23 6
30 1 8 -4 25 -5 40 -1 14 4 54 7 88 6 57 -1 62 1 63 19 0 12 0 37 0 56 0 19
-2 58 -6 85 -3 28 -6 58 -6 67 1 19 -38 34 -63 24 -8 -3 -15 -2 -15 2 0 11
-1202 9 -1217 -1 -7 -5 -13 -4 -13 1 0 12 -32 12 -47 -1 -7 -5 -13 -5 -13 0 0
5 -9 9 -20 10 -11 1 -20 -2 -20 -7 0 -9 -26 -8 -35 2 -3 3 -21 2 -39 -2 -47
-10 -64 2 -59 42 3 18 4 39 4 46 0 6 -1 24 0 40 0 37 -2 63 -5 87 -1 11 2 28
6 38 5 9 5 17 1 17 -5 0 -8 101 -8 225 0 124 4 225 8 225 5 0 5 5 1 12 -12 18
-11 72 1 80 7 5 6 8 -1 8 -10 0 -10 56 -1 105 6 27 -8 51 -51 89 -35 31 -194
182 -298 284 -29 28 -58 52 -63 52 -5 0 -13 9 -16 21 -4 11 -9 18 -12 15 -3
-2 -15 6 -28 20 -12 13 -25 24 -29 24 -4 0 -19 11 -34 25 -43 40 -44 38 -45
-62 -1 -23 -5 -39 -11 -36 -5 4 -6 1 -1 -7 5 -8 9 -76 10 -151 2 -126 1 -138
-16 -142 -11 -3 -19 0 -19 6 0 7 -5 5 -10 -3 -5 -8 -10 -10 -10 -5 0 9 -25 14
-82 18 -10 1 -18 4 -18 8 0 4 -13 9 -30 12 l-29 6 1 681 c0 374 -2 684 -6 688
-4 3 -19 7 -34 8 -15 1 -47 4 -72 8 -25 3 -61 9 -81 11 l-36 5 2 -62z m1896
-3174 c8 -5 20 -9 27 -10 7 -1 28 -14 46 -28 19 -14 36 -22 40 -19 3 4 6 2 6
-4 0 -5 13 -24 30 -43 16 -18 27 -37 24 -41 -3 -5 0 -9 5 -9 6 0 10 -3 9 -7
-1 -5 4 -19 12 -33 16 -29 21 -129 7 -147 -5 -7 -6 -13 -2 -13 4 0 1 -8 -6
-17 -12 -15 -12 -16 1 -8 11 6 10 3 -2 -12 -10 -11 -18 -24 -18 -30 0 -5 -11
-22 -25 -37 -14 -15 -25 -30 -25 -34 0 -13 -95 -72 -128 -78 -18 -4 -35 -10
-37 -14 -3 -5 -13 -6 -23 -4 -40 10 -45 -7 -45 -155 l0 -141 -48 -30 c-63 -38
-73 -47 -204 -175 -61 -60 -140 -136 -173 -167 -34 -32 -60 -58 -58 -58 3 0
-23 -26 -56 -57 -110 -104 -189 -183 -183 -183 4 0 -8 -12 -27 -27 -18 -16
-41 -38 -51 -50 -62 -76 -252 -250 -269 -245 -4 1 -7 -2 -6 -7 3 -10 -40 -51
-54 -51 -9 0 -9 -1 -13 55 -10 114 -12 195 -5 195 14 0 179 167 173 174 -4 3
-1 6 5 6 15 0 58 42 55 52 -2 5 1 8 7 8 5 0 37 27 71 60 33 33 66 60 72 60 5
0 7 3 4 7 -12 11 452 473 475 473 5 0 7 4 3 9 -3 5 4 12 15 16 24 8 81 75 74
87 -9 15 -11 188 -2 188 14 0 9 20 -14 53 -13 18 -26 34 -29 37 -6 5 -31 73
-36 100 -11 59 -8 96 14 161 45 133 158 214 289 205 34 -2 68 -7 75 -12z
m-736 -334 c59 -27 120 -92 133 -140 5 -22 6 -40 2 -40 -4 0 -6 -10 -6 -22 1
-13 0 -27 -3 -33 -3 -5 -6 -17 -8 -25 -1 -8 -7 -16 -12 -18 -6 -2 -11 -9 -11
-15 0 -22 -101 -93 -114 -80 -3 3 -6 1 -6 -5 0 -6 -8 -11 -17 -11 -10 -1 -34
-1 -53 -2 -19 0 -56 6 -81 14 -49 15 -119 71 -119 94 0 7 -5 13 -11 13 -5 0
-8 4 -5 9 4 5 1 11 -5 13 -7 2 -12 23 -13 46 0 23 -5 42 -11 42 -6 0 -6 3 1 8
8 6 26 41 25 49 -1 7 91 93 100 93 5 0 8 4 5 8 -3 5 0 9 7 10 7 1 28 5 47 10
48 12 103 6 155 -18z"/>
<path d="M5583 3067 c-65 -48 -79 -82 -59 -142 9 -26 63 -63 101 -70 35 -7
122 32 118 53 -2 6 2 12 9 12 6 0 8 3 5 6 -3 4 -2 15 4 26 14 25 -25 94 -63
110 -15 7 -28 17 -28 22 0 6 -5 5 -12 -2 -7 -7 -17 -8 -28 -2 -12 7 -26 3 -47
-13z"/>
<path d="M2710 6388 c0 -6 -48 -20 -82 -23 -9 -1 -23 -7 -32 -14 -9 -8 -16
-11 -16 -8 0 4 -20 -2 -44 -13 -24 -10 -47 -16 -50 -13 -3 4 -6 1 -6 -6 0 -7
-4 -10 -9 -6 -5 3 -12 1 -16 -5 -4 -6 -11 -8 -16 -5 -5 4 -9 1 -9 -6 0 -7 -3
-10 -6 -6 -4 3 -23 -2 -44 -13 -21 -11 -40 -16 -44 -13 -3 4 -6 2 -6 -3 0 -6
-17 -16 -37 -23 -21 -8 -40 -17 -43 -20 -3 -4 -25 -15 -50 -26 -25 -11 -47
-22 -50 -25 -3 -3 -25 -16 -50 -29 -25 -14 -48 -29 -52 -35 -4 -6 -8 -7 -8 -2
0 5 -12 -1 -26 -15 -14 -13 -29 -23 -32 -23 -11 2 -52 -18 -52 -25 0 -4 -17
-15 -37 -26 -21 -11 -40 -22 -43 -25 -3 -3 -21 -17 -40 -30 -19 -12 -40 -29
-46 -36 -6 -7 -17 -14 -24 -16 -8 -2 -26 -15 -39 -30 -14 -16 -29 -28 -32 -28
-8 0 -58 -43 -120 -102 -21 -21 -39 -36 -39 -32 0 3 -33 -28 -72 -69 -91 -93
-158 -165 -158 -171 0 -4 -32 -44 -62 -76 -9 -10 -14 -21 -11 -24 3 -3 -2 -8
-11 -12 -9 -3 -16 -10 -16 -15 0 -10 -35 -63 -58 -87 -6 -7 -12 -17 -12 -21 0
-4 -9 -18 -20 -31 -11 -12 -18 -26 -15 -30 2 -4 -5 -16 -15 -28 -11 -12 -20
-28 -20 -37 0 -8 -5 -15 -11 -15 -5 0 -7 -4 -4 -10 3 -5 2 -10 -3 -10 -4 0
-19 -24 -32 -52 -13 -29 -36 -74 -51 -100 -15 -25 -25 -49 -22 -52 4 -3 1 -6
-6 -6 -7 0 -9 -4 -6 -10 3 -5 2 -10 -4 -10 -6 0 -7 -7 -4 -17 4 -11 3 -14 -5
-9 -11 6 -17 -12 -13 -36 0 -5 -4 -8 -10 -8 -5 0 -8 -4 -5 -9 4 -5 3 -11 -1
-13 -9 -3 -64 -166 -63 -184 0 -6 -6 -17 -14 -23 -8 -7 -15 -20 -15 -29 -1
-38 -5 -52 -12 -52 -4 0 -6 -9 -4 -20 2 -11 -1 -20 -7 -20 -6 0 -9 -2 -6 -5 3
-3 -1 -31 -9 -63 -8 -31 -15 -63 -15 -69 -1 -7 -4 -13 -8 -13 -4 0 -5 -11 -3
-24 3 -13 0 -27 -6 -30 -22 -14 -10 -24 22 -17 17 4 125 7 239 7 133 -1 208 3
208 9 0 7 3 7 8 0 4 -6 69 -10 157 -10 88 0 153 4 157 10 5 7 8 7 8 0 0 -6 38
-10 93 -10 50 0 95 5 99 10 5 7 8 7 8 0 0 -8 193 -12 255 -6 6 1 10 113 11
314 2 477 2 476 32 501 14 11 39 36 56 55 17 19 43 47 59 63 15 15 27 32 27
38 0 5 3 10 8 10 12 0 257 243 255 252 -2 4 1 7 5 5 5 -1 59 50 121 113 62 63
117 114 122 113 5 -2 9 2 9 9 0 6 6 4 13 -7 13 -17 15 -17 30 5 8 12 19 20 24
17 15 -9 28 18 28 58 0 22 3 52 6 66 4 14 2 33 -3 42 -6 11 -5 17 1 17 7 0 7
8 1 24 -5 13 -6 26 -3 29 8 9 10 200 1 219 -4 9 -5 19 0 21 6 4 9 168 3 213
-1 12 -51 14 -51 2z m-156 -339 c7 -69 12 -108 21 -140 5 -22 -1 -33 -45 -75
-28 -27 -107 -104 -176 -171 -68 -67 -124 -120 -124 -119 0 3 -79 -69 -183
-166 -22 -21 -44 -38 -49 -38 -5 0 -6 -4 -3 -10 3 -5 2 -10 -3 -10 -5 0 -86
-76 -181 -169 -150 -147 -174 -167 -187 -154 -7 8 -14 19 -14 25 0 23 -107 96
-132 90 -13 -3 -9 19 6 34 8 8 17 14 19 14 3 0 28 22 56 50 28 27 51 48 51 45
0 -2 29 25 65 60 35 36 67 65 69 65 3 0 59 54 125 119 67 66 121 117 121 115
0 -2 34 30 75 71 41 41 79 75 85 75 6 0 9 3 7 8 -3 4 1 13 9 20 8 7 14 10 14
6 0 -4 20 14 45 39 25 26 45 45 45 41 0 -3 17 12 38 33 22 21 61 59 88 84 27
26 63 62 81 80 52 55 57 58 65 44 4 -7 10 -37 12 -66z m-1130 -1091 c-3 -4 4
-9 15 -9 25 -2 29 -3 62 -17 33 -13 109 -84 109 -101 0 -7 5 -9 10 -6 6 3 11
-1 11 -9 2 -20 4 -26 13 -49 5 -9 5 -41 2 -70 -4 -28 -8 -58 -8 -64 -1 -7 -6
-13 -11 -13 -6 0 -7 -3 -4 -7 4 -3 0 -15 -10 -25 -9 -10 -12 -18 -8 -18 12 0
-76 -80 -89 -81 -6 -1 -14 -1 -18 0 -5 0 -8 -4 -8 -10 0 -5 -4 -7 -10 -4 -5 3
-10 1 -10 -5 0 -6 -4 -8 -10 -5 -5 3 -15 3 -22 -1 -16 -10 -89 -11 -94 -2 -3
5 -16 8 -30 8 -13 0 -24 5 -24 10 0 6 -5 10 -11 10 -17 0 -89 62 -89 77 0 7
-4 13 -10 13 -8 0 -42 54 -40 62 1 2 -2 11 -6 21 -11 29 2 148 17 158 8 5 11
9 7 9 -12 0 39 69 66 91 13 10 32 19 41 19 10 0 13 5 9 12 -5 7 -2 9 8 6 8 -4
20 -3 26 1 16 10 122 9 116 -1z"/>
<path d="M1360 4804 c-16 -5 -42 -56 -43 -84 0 -22 23 -66 36 -68 68 -10 79
-9 102 11 28 25 39 71 24 98 -5 11 -26 26 -46 34 -36 15 -45 16 -73 9z"/>
<path d="M4267 6382 c-4 -16 1 -630 5 -664 2 -14 10 -16 49 -11 43 5 49 3 87
-33 23 -21 42 -44 42 -51 0 -7 5 -13 10 -13 6 0 10 -7 10 -15 0 -8 5 -15 10
-15 6 0 10 -5 10 -10 0 -6 32 -42 70 -81 39 -38 70 -75 70 -81 0 -6 3 -9 6 -5
7 7 12 4 125 -105 50 -49 95 -88 100 -88 5 0 9 -4 9 -10 0 -5 11 -20 25 -34
14 -14 25 -23 25 -21 0 3 8 -3 18 -12 11 -10 17 -21 15 -25 -2 -5 2 -8 10 -8
7 0 25 -13 39 -29 15 -16 32 -31 38 -33 9 -3 13 -33 15 -94 1 -49 4 -95 8
-101 4 -5 3 -13 0 -17 -11 -11 -12 -36 -2 -36 6 0 7 -6 2 -12 -12 -21 -14 -48
-2 -48 5 0 7 -6 3 -12 -5 -7 -9 -127 -10 -266 -1 -242 0 -253 18 -249 10 3 21
1 24 -4 3 -5 11 -6 17 -2 16 10 48 10 70 0 10 -5 24 -5 30 0 7 4 189 8 404 8
255 0 393 4 393 10 0 7 3 7 8 0 4 -6 71 -10 164 -10 l156 0 -3 25 c-1 14 -4
25 -5 25 -2 0 -9 26 -16 63 -4 17 -9 32 -13 32 -4 0 -7 8 -8 18 -1 17 -6 35
-15 62 -3 8 -11 35 -18 60 -7 25 -18 56 -25 70 -7 14 -11 33 -10 43 2 9 -1 17
-6 17 -5 0 -9 9 -9 19 0 11 -4 23 -10 26 -5 3 -10 15 -10 26 0 10 -4 19 -10
19 -5 0 -7 7 -4 15 4 8 1 15 -5 15 -6 0 -10 3 -9 8 4 11 -32 101 -69 170 -18
34 -33 67 -33 73 0 5 -16 35 -35 65 -19 30 -35 56 -35 58 0 9 -104 161 -112
164 -4 2 -8 8 -8 13 0 8 -12 24 -72 92 -16 17 -28 34 -28 38 0 5 -10 19 -22
31 -13 13 -45 50 -73 83 -53 63 -216 225 -262 262 -72 56 -149 119 -161 130
-8 7 -18 10 -24 7 -6 -4 -8 -2 -4 4 3 6 -7 16 -24 24 -16 7 -30 19 -30 26 0 7
-4 10 -10 7 -5 -3 -10 -1 -10 4 0 6 -5 11 -11 11 -6 0 -30 14 -54 30 -24 17
-48 30 -54 30 -6 0 -11 4 -11 9 0 5 -8 12 -17 15 -10 3 -27 12 -38 19 -23 15
-187 101 -195 102 -3 0 -15 6 -26 13 -12 6 -24 9 -26 6 -3 -2 -11 2 -18 11 -7
8 -21 15 -31 15 -10 0 -21 5 -24 10 -4 6 -10 8 -15 5 -5 -3 -11 -1 -15 5 -3 5
-15 10 -26 10 -10 0 -19 4 -19 8 0 5 -7 9 -15 10 -8 1 -22 3 -30 4 -8 1 -15 5
-15 10 0 5 -4 6 -10 3 -5 -3 -10 -1 -10 4 0 6 -3 10 -7 9 -7 -2 -58 12 -170
47 -38 12 -43 12 -46 -3z m268 -299 c10 -15 29 -38 42 -52 64 -68 98 -101 105
-101 5 0 8 -7 8 -16 0 -8 4 -13 8 -10 4 2 41 -27 82 -65 41 -38 78 -69 83 -69
4 0 5 -4 2 -10 -3 -5 -1 -10 5 -10 6 0 17 -6 24 -12 7 -7 46 -42 86 -78 40
-36 79 -71 87 -78 7 -7 13 -11 13 -8 0 3 11 -6 25 -20 14 -14 25 -30 25 -36 0
-6 3 -8 7 -5 3 4 26 -13 50 -38 24 -25 48 -45 54 -45 5 0 8 -3 6 -7 -2 -5 14
-25 35 -45 21 -20 38 -34 38 -32 0 3 20 -14 44 -38 24 -24 72 -69 105 -101 55
-53 72 -84 37 -71 -11 4 -80 -55 -114 -100 -13 -16 -15 -16 -40 0 -15 9 -59
50 -98 90 -39 41 -74 71 -78 67 -3 -3 -6 1 -6 10 0 9 -4 17 -9 17 -5 0 -75 65
-156 145 -80 80 -148 145 -151 145 -10 0 -244 231 -244 241 0 4 -9 11 -21 14
-11 4 -19 9 -16 11 2 3 -20 29 -49 58 -37 37 -55 64 -58 85 -2 17 0 31 4 31 4
0 6 20 5 45 -1 26 3 45 9 45 7 0 8 3 1 8 -12 9 -16 52 -4 52 5 0 6 7 2 16 -10
26 30 1 52 -33z m1075 -1115 c0 8 8 10 23 7 12 -3 31 -7 42 -8 27 -5 78 -29
87 -42 4 -5 8 -6 8 -1 0 6 16 -8 36 -30 41 -43 78 -118 71 -139 -3 -7 -1 -17
4 -22 11 -11 -5 -73 -33 -131 -28 -55 -93 -122 -120 -122 -7 0 -25 -6 -40 -14
-34 -18 -111 -14 -163 8 -22 9 -41 17 -42 17 -8 0 -68 66 -65 72 2 4 -4 10
-12 13 -9 3 -14 10 -11 14 3 5 1 11 -5 15 -16 10 -45 135 -31 135 4 0 7 10 8
22 2 26 34 88 45 88 5 0 8 7 8 15 0 8 5 15 10 15 6 0 19 9 29 19 28 28 111 72
122 66 5 -4 9 0 9 7 0 9 3 9 10 -2 7 -10 10 -11 10 -2z"/>
<path d="M5605 4811 c-3 -6 -10 -9 -15 -6 -10 6 -40 -35 -44 -57 -1 -7 -5 -19
-9 -25 -5 -8 -3 -13 3 -13 6 0 9 -4 6 -9 -11 -17 42 -52 83 -56 23 -2 41 1 41
6 0 5 7 9 16 9 8 0 12 5 9 10 -3 6 -2 10 2 10 5 0 14 12 19 28 8 21 6 34 -9
62 -11 19 -20 36 -21 37 -8 9 -75 12 -81 4z"/>
<path d="M3477 4734 c-1 -2 -28 -4 -60 -5 -31 -1 -57 -6 -57 -9 0 -4 -11 -6
-25 -5 -14 2 -25 0 -25 -4 0 -4 -6 -8 -12 -9 -19 -1 -39 -7 -71 -20 -16 -7
-33 -12 -38 -12 -5 0 -9 -5 -9 -11 0 -5 -4 -8 -9 -5 -5 3 -14 -1 -21 -9 -7 -8
-17 -15 -22 -15 -28 0 -222 -166 -212 -182 3 -4 1 -8 -4 -8 -20 0 -122 -177
-129 -224 -2 -11 -8 -25 -13 -31 -5 -7 -7 -15 -3 -18 3 -4 2 -7 -3 -7 -5 0
-11 -14 -12 -32 -2 -18 -6 -35 -10 -38 -21 -14 -8 -317 15 -380 4 -8 6 -18 5
-22 -1 -4 5 -23 13 -42 9 -20 16 -39 16 -43 2 -13 41 -87 58 -109 9 -12 23
-32 31 -44 8 -13 26 -33 40 -46 14 -13 21 -24 17 -24 -5 0 -2 -7 7 -15 8 -8
17 -15 19 -15 3 0 21 -15 40 -32 46 -44 77 -69 77 -62 0 3 12 -4 26 -15 15
-11 30 -18 35 -15 5 3 9 2 9 -3 0 -15 163 -76 174 -66 3 4 6 2 6 -3 0 -12 50
-16 190 -16 141 0 169 2 176 13 3 5 9 7 14 4 4 -3 21 2 36 10 16 8 33 15 38
15 5 0 18 8 29 18 11 9 17 11 12 3 -5 -9 1 -7 19 4 14 10 26 13 26 9 0 -5 4
-4 8 1 4 6 28 23 54 38 61 35 196 170 226 225 13 23 20 42 15 42 -4 0 0 5 10
11 9 5 17 17 17 24 0 8 5 15 11 15 5 0 8 4 4 9 -3 5 -1 12 5 16 13 8 50 94 52
122 2 13 5 23 8 23 6 0 8 26 12 173 2 55 1 100 -2 102 -3 2 -5 21 -4 42 1 21
-1 43 -5 48 -7 9 -9 23 -13 73 -1 6 -5 12 -10 12 -4 0 -8 11 -8 24 0 13 -3 26
-7 28 -5 2 -16 19 -25 38 -34 68 -69 121 -98 150 -17 17 -27 30 -23 30 4 0 -5
11 -20 25 -15 14 -27 30 -27 35 0 6 -3 9 -8 8 -4 -2 -21 9 -37 25 -16 15 -35
27 -41 27 -7 0 -14 7 -18 15 -3 8 -12 15 -21 15 -8 0 -15 5 -15 10 0 6 -7 10
-15 10 -8 0 -15 5 -15 10 0 5 -3 9 -7 8 -5 -1 -30 9 -58 21 -27 12 -70 27 -95
33 -25 6 -52 14 -60 18 -8 4 -30 6 -47 5 -18 -1 -33 3 -33 8 0 5 -6 4 -13 -2
-8 -6 -16 -8 -20 -5 -6 6 -65 12 -70 8z m3 -358 c0 12 56 12 67 0 3 -3 12 -1
20 5 8 7 13 8 13 1 0 -5 9 -8 20 -5 12 3 20 0 20 -6 0 -7 4 -10 9 -7 5 3 22
-1 37 -9 16 -8 34 -15 41 -15 22 0 143 -89 143 -105 0 -3 8 -14 18 -24 32 -36
43 -51 36 -51 -3 0 0 -7 7 -17 8 -9 13 -19 13 -22 -1 -3 3 -17 9 -31 15 -37
19 -52 18 -77 0 -13 3 -23 7 -23 10 0 8 -121 -2 -138 -4 -7 -5 -19 -2 -27 3
-8 0 -15 -6 -15 -6 0 -9 -3 -5 -6 3 -4 0 -19 -9 -35 -8 -16 -15 -32 -16 -36
-2 -18 -22 -53 -29 -53 -4 0 -10 -8 -13 -18 -5 -16 -54 -69 -96 -104 -40 -33
-124 -75 -166 -82 -71 -13 -127 -14 -176 -5 -29 5 -59 10 -65 11 -7 1 -13 5
-13 10 0 4 -3 7 -7 6 -15 -3 -63 14 -63 22 0 5 -8 11 -17 14 -33 11 -146 133
-137 147 3 5 0 9 -6 9 -9 0 -23 26 -30 55 -1 6 -6 17 -11 26 -21 40 -32 189
-14 189 5 0 3 5 -5 10 -8 5 -10 10 -4 10 6 0 11 10 10 23 0 12 6 38 13 57 8
19 13 38 12 43 0 4 3 7 9 7 5 0 10 4 10 9 0 5 5 22 11 38 6 15 10 29 10 31 -1
1 7 11 17 21 9 11 22 26 28 33 33 39 138 111 148 101 3 -4 6 -1 6 5 0 7 3 11
8 11 4 -1 9 -1 12 1 14 5 58 13 78 14 12 1 22 6 22 11 0 6 5 3 10 -5 5 -8 10
-10 10 -4z"/>
<path d="M3444 4149 c-18 -5 -46 -22 -63 -38 -16 -15 -32 -27 -34 -25 -2 2
-16 -23 -32 -56 -50 -105 -33 -207 47 -282 69 -65 183 -79 254 -33 13 8 27 15
30 14 4 0 14 11 24 25 9 15 19 24 22 21 6 -6 38 56 38 74 0 6 4 11 9 11 17 0
9 123 -9 161 -22 41 -79 101 -92 93 -4 -3 -8 0 -8 6 0 6 -4 9 -9 6 -5 -4 -11
-2 -13 3 -6 19 -118 32 -164 20z"/>
<path d="M2978 3027 c-8 -23 -2 -1692 5 -1704 5 -7 5 -13 0 -13 -6 0 -9 -376
-4 -470 1 -10 10 -16 24 -16 22 -1 173 -14 192 -17 12 -3 14 54 2 71 -6 7 -6
12 0 12 11 0 11 29 -1 48 -4 7 -2 12 4 12 6 0 8 5 4 12 -11 18 -12 48 -2 48 5
0 6 6 1 13 -11 18 -12 37 -2 37 6 0 7 6 3 12 -12 19 -12 48 -1 48 6 0 6 5 1
13 -11 15 -11 38 -1 55 5 6 4 12 -1 12 -10 0 -9 30 2 48 4 7 2 12 -4 12 -6 0
-8 5 -5 11 11 17 12 69 2 69 -5 0 -4 7 3 15 9 11 9 15 1 15 -8 0 -9 5 -1 19 7
14 7 22 0 26 -8 5 -7 11 1 21 9 11 9 14 0 14 -8 0 -9 5 -2 18 6 11 6 24 1 32
-5 9 -5 19 2 27 6 7 6 13 1 13 -8 0 -10 46 -3 75 1 6 1 12 0 15 -7 16 -4 90 3
90 6 0 6 5 0 13 -11 14 -12 942 -1 953 4 3 3 15 -2 25 -7 12 -7 20 0 24 8 5 8
11 0 20 -6 7 -7 16 -2 19 9 5 8 64 -2 73 -3 4 -1 12 5 20 7 7 7 13 2 13 -6 0
-9 12 -8 28 2 28 -24 62 -47 62 -8 0 -30 8 -51 19 -75 38 -115 51 -119 38z"/>
<path d="M4016 3025 c-9 -10 -19 -15 -23 -12 -3 3 -22 -4 -42 -17 -20 -13 -42
-21 -48 -19 -7 3 -13 0 -13 -7 0 -6 -4 -9 -9 -5 -5 3 -12 1 -16 -5 -4 -6 -11
-7 -17 -4 -6 4 -13 1 -17 -5 -4 -6 -6 -202 -6 -436 1 -280 -2 -422 -8 -418 -6
4 -7 1 -1 -8 5 -8 10 -268 10 -579 3 -792 0 -709 27 -706 13 1 28 6 35 10 7 4
12 6 12 4 0 -3 33 1 73 7 l72 11 0 96 c0 63 -3 94 -10 90 -6 -3 -5 0 1 9 8 10
11 201 12 644 1 347 2 631 2 633 2 3 2 61 0 65 -3 4 -3 391 0 492 2 74 7 105
19 119 15 18 15 19 -2 13 -10 -4 -16 -3 -13 2 3 4 0 16 -7 26 -13 16 -14 16
-31 0z"/>
<path d="M4065 2971 c-3 -6 3 -9 14 -8 11 0 17 5 15 9 -7 11 -22 10 -29 -1z"/>
<path d="M3560 2900 c-14 -3 -51 -5 -82 -4 -32 0 -59 -2 -59 -5 -1 -3 -3 -36
-4 -72 -1 -36 -5 -71 -9 -77 -4 -7 -4 -12 1 -12 4 0 6 -133 3 -295 -3 -162 -2
-295 2 -295 4 0 5 -6 2 -13 -10 -27 -9 -227 1 -227 7 0 7 -3 0 -8 -6 -4 -10
-134 -9 -357 2 -648 4 -745 17 -746 7 -1 53 -2 103 -3 l91 -1 -1 110 c-1 61 2
116 7 123 5 6 6 12 1 12 -11 0 -11 371 0 388 4 7 3 12 -2 12 -11 0 -10 50 1
68 5 6 5 12 0 12 -10 0 -10 371 1 388 4 7 3 12 -2 12 -11 0 -10 50 1 68 5 6 4
12 0 12 -8 0 -7 347 1 383 2 9 1 17 -2 17 -4 0 -7 16 -7 35 0 19 4 35 8 35 5
0 5 5 2 11 -4 5 -8 104 -8 219 -2 226 -2 224 -57 210z"/>
</g>
</svg>
